# xmcd
#
# Track frame offsets:
#	150
#	9412
#	30535
#	51367
#	75342
#	88212
#	102870
#	118800
#	138020
#	163442
#	186487
#	211950
#	228292
#	260910
#	280605
#	297725
#	318025
#	331725
#
# Disc length: 4476 seconds
# Revision: 0
# Processed by: cddbd v1.5.2PL0 Copyright (c) Steve Scherf et al.
# Submitted via: dBpowerAMP V12.0
#
DISCID=01117a12
DTITLE=Various Artist - Dan ca co truyen nam trung bac
DYEAR=1993
DGENRE=Folk
TTITLE0=Bao Dung - Loi gioi thieu
TTITLE1=Hoang Oanh - Ly ngua o
TTITLE2=Hoang Oanh - Xe chi luon kim
TTITLE3=Hoang Oanh - Ly tinh tang
TTITLE4=Hoang Oanh - Trong com
TTITLE5=Hoang Oanh - Cay truc xinh
TTITLE6=Hoang Oanh - Ho nen
TTITLE7=Hoang Oanh - Ly lu la
TTITLE8=Hoang Oanh - Ly bon mua
TTITLE9=Hoang Oanh - Qua cau gio bay
TTITLE10=Hoang Oanh - Ly qua deo
TTITLE11=Hoang Oanh - Ly con sao
TTITLE12=Hoang Oanh - Ngoi tua song dao
TTITLE13=Hoang Oanh - Ly cat co
TTITLE14=Hoang Oanh - Vong nguyet
TTITLE15=Hoang Oanh - Ly giang nam
TTITLE16=Hoang Oanh - Ly cay da
TTITLE17=Bao Dung - Loi ket
EXTD=
EXTT0=
EXTT1=
EXTT2=
EXTT3=
EXTT4=
EXTT5=
EXTT6=
EXTT7=
EXTT8=
EXTT9=
EXTT10=
EXTT11=
EXTT12=
EXTT13=
EXTT14=
EXTT15=
EXTT16=
EXTT17=
PLAYORDER=
